STARTFONT 2.1
FONT -ibm-courier-bold-o-normal--8-80-100-100-m-62-iso8859-2
SIZE 8 100 100
FONTBOUNDINGBOX 9 12 0 -1
COMMENT $Header: courBO08.bdf,v 1.1 96/01/22 23:46:52 peterlin Exp $
COMMENT 
COMMENT Copyright International Business Machines,Corp. 1991
COMMENT IBM Courier is a Trademark of the IBM Corporation.
COMMENT 
COMMENT Automatic rendering from Adobe Type 1 outline:
COMMENT Primoz Peterlin <primoz.peterlin@biofiz.mf.uni-lj.si>
COMMENT courbi.pfa rendered at 9.000000 points
COMMENT Checksum eb69a063
STARTPROPERTIES 3
FONT_ASCENT 10
FONT_DESCENT 1
DEFAULT_CHAR 32
ENDPROPERTIES
CHARS 191
STARTCHAR space
ENCODING 32
SWIDTH 557 0
DWIDTH 7 0
BBX 0 0 0 1
BITMAP
ENDCHAR
STARTCHAR exclam
ENCODING 33
SWIDTH 557 0
DWIDTH 7 0
BBX 3 8 3 0
BITMAP
60
60
40
40
40
00
c0
c0
ENDCHAR
STARTCHAR quotedbl
ENCODING 34
SWIDTH 557 0
DWIDTH 7 0
BBX 4 4 3 4
BITMAP
50
f0
f0
a0
ENDCHAR
STARTCHAR numbersign
ENCODING 35
SWIDTH 557 0
DWIDTH 7 0
BBX 7 9 1 0
BITMAP
14
24
24
7e
28
fc
48
48
50
ENDCHAR
STARTCHAR dollar
ENCODING 36
SWIDTH 557 0
DWIDTH 7 0
BBX 6 10 1 -1
BITMAP
08
3c
74
70
38
1c
ec
f8
20
20
ENDCHAR
STARTCHAR percent
ENCODING 37
SWIDTH 557 0
DWIDTH 7 0
BBX 7 7 1 1
BITMAP
78
d8
7c
70
9c
36
1c
ENDCHAR
STARTCHAR ampersand
ENCODING 38
SWIDTH 557 0
DWIDTH 7 0
BBX 6 7 1 1
BITMAP
38
64
60
6c
d8
d0
68
ENDCHAR
STARTCHAR quoteright
ENCODING 39
SWIDTH 557 0
DWIDTH 7 0
BBX 3 3 3 5
BITMAP
60
40
c0
ENDCHAR
STARTCHAR parenleft
ENCODING 40
SWIDTH 557 0
DWIDTH 7 0
BBX 5 9 3 0
BITMAP
10
20
60
40
c0
c0
c0
c0
40
ENDCHAR
STARTCHAR parenright
ENCODING 41
SWIDTH 557 0
DWIDTH 7 0
BBX 4 9 1 0
BITMAP
20
30
30
30
30
20
60
40
c0
ENDCHAR
STARTCHAR asterisk
ENCODING 42
SWIDTH 557 0
DWIDTH 7 0
BBX 5 5 2 3
BITMAP
30
e8
70
70
50
ENDCHAR
STARTCHAR plus
ENCODING 43
SWIDTH 557 0
DWIDTH 7 0
BBX 6 6 1 2
BITMAP
30
30
30
fc
30
30
ENDCHAR
STARTCHAR comma
ENCODING 44
SWIDTH 557 0
DWIDTH 7 0
BBX 3 3 2 0
BITMAP
60
40
c0
ENDCHAR
STARTCHAR minus
ENCODING 45
SWIDTH 557 0
DWIDTH 7 0
BBX 6 1 1 4
BITMAP
fc
ENDCHAR
STARTCHAR period
ENCODING 46
SWIDTH 557 0
DWIDTH 7 0
BBX 2 2 3 1
BITMAP
c0
c0
ENDCHAR
STARTCHAR slash
ENCODING 47
SWIDTH 557 0
DWIDTH 7 0
BBX 7 10 1 0
BITMAP
02
04
04
08
10
10
20
40
40
80
ENDCHAR
STARTCHAR zero
ENCODING 48
SWIDTH 557 0
DWIDTH 7 0
BBX 6 7 1 1
BITMAP
3c
6c
4c
cc
c8
c8
70
ENDCHAR
STARTCHAR one
ENCODING 49
SWIDTH 557 0
DWIDTH 7 0
BBX 5 7 1 1
BITMAP
70
10
10
10
20
20
f8
ENDCHAR
STARTCHAR two
ENCODING 50
SWIDTH 557 0
DWIDTH 7 0
BBX 6 7 1 1
BITMAP
7c
4c
0c
18
30
48
f8
ENDCHAR
STARTCHAR three
ENCODING 51
SWIDTH 557 0
DWIDTH 7 0
BBX 6 7 1 1
BITMAP
3c
0c
1c
38
0c
0c
f0
ENDCHAR
STARTCHAR four
ENCODING 52
SWIDTH 557 0
DWIDTH 7 0
BBX 5 7 1 1
BITMAP
18
28
28
50
f8
10
70
ENDCHAR
STARTCHAR five
ENCODING 53
SWIDTH 557 0
DWIDTH 7 0
BBX 6 7 1 1
BITMAP
3c
20
78
4c
0c
08
f0
ENDCHAR
STARTCHAR six
ENCODING 54
SWIDTH 557 0
DWIDTH 7 0
BBX 7 7 1 1
BITMAP
1c
20
78
cc
cc
c8
70
ENDCHAR
STARTCHAR seven
ENCODING 55
SWIDTH 557 0
DWIDTH 7 0
BBX 5 7 3 1
BITMAP
f8
90
10
20
60
40
40
ENDCHAR
STARTCHAR eight
ENCODING 56
SWIDTH 557 0
DWIDTH 7 0
BBX 7 7 1 1
BITMAP
3e
66
6c
78
cc
cc
70
ENDCHAR
STARTCHAR nine
ENCODING 57
SWIDTH 557 0
DWIDTH 7 0
BBX 6 7 1 1
BITMAP
3c
6c
6c
3c
08
18
e0
ENDCHAR
STARTCHAR colon
ENCODING 58
SWIDTH 557 0
DWIDTH 7 0
BBX 2 5 3 1
BITMAP
c0
c0
00
c0
c0
ENDCHAR
STARTCHAR semicolon
ENCODING 59
SWIDTH 557 0
DWIDTH 7 0
BBX 3 6 2 0
BITMAP
60
60
00
40
c0
80
ENDCHAR
STARTCHAR less
ENCODING 60
SWIDTH 557 0
DWIDTH 7 0
BBX 7 6 1 2
BITMAP
06
1c
70
70
1c
06
ENDCHAR
STARTCHAR equal
ENCODING 61
SWIDTH 557 0
DWIDTH 7 0
BBX 6 3 1 3
BITMAP
fc
00
fc
ENDCHAR
STARTCHAR greater
ENCODING 62
SWIDTH 557 0
DWIDTH 7 0
BBX 7 6 1 2
BITMAP
80
e0
38
1c
70
c0
ENDCHAR
STARTCHAR question
ENCODING 63
SWIDTH 557 0
DWIDTH 7 0
BBX 5 8 2 0
BITMAP
f0
98
18
70
40
40
c0
c0
ENDCHAR
STARTCHAR at
ENCODING 64
SWIDTH 557 0
DWIDTH 7 0
BBX 8 7 0 1
BITMAP
1e
63
cf
ff
f6
42
3c
ENDCHAR
STARTCHAR A
ENCODING 65
SWIDTH 557 0
DWIDTH 7 0
BBX 7 7 0 1
BITMAP
18
18
14
34
3c
44
ee
ENDCHAR
STARTCHAR B
ENCODING 66
SWIDTH 557 0
DWIDTH 7 0
BBX 8 7 0 1
BITMAP
3e
33
23
3e
23
23
fe
ENDCHAR
STARTCHAR C
ENCODING 67
SWIDTH 557 0
DWIDTH 7 0
BBX 7 7 1 1
BITMAP
3a
66
c4
c0
c0
c4
7c
ENDCHAR
STARTCHAR D
ENCODING 68
SWIDTH 557 0
DWIDTH 7 0
BBX 8 7 0 1
BITMAP
3e
23
23
23
22
66
f8
ENDCHAR
STARTCHAR E
ENCODING 69
SWIDTH 557 0
DWIDTH 7 0
BBX 7 7 1 1
BITMAP
7e
22
2a
38
4c
44
fc
ENDCHAR
STARTCHAR F
ENCODING 70
SWIDTH 557 0
DWIDTH 7 0
BBX 7 7 1 1
BITMAP
7e
22
2a
38
48
40
e0
ENDCHAR
STARTCHAR G
ENCODING 71
SWIDTH 557 0
DWIDTH 7 0
BBX 7 7 1 1
BITMAP
3a
66
46
c0
de
c4
78
ENDCHAR
STARTCHAR H
ENCODING 72
SWIDTH 557 0
DWIDTH 7 0
BBX 8 7 0 1
BITMAP
77
22
22
3c
44
44
ee
ENDCHAR
STARTCHAR I
ENCODING 73
SWIDTH 557 0
DWIDTH 7 0
BBX 7 7 1 1
BITMAP
7e
08
10
10
10
30
fc
ENDCHAR
STARTCHAR J
ENCODING 74
SWIDTH 557 0
DWIDTH 7 0
BBX 8 7 1 1
BITMAP
1f
04
04
c4
cc
c8
70
ENDCHAR
STARTCHAR K
ENCODING 75
SWIDTH 557 0
DWIDTH 7 0
BBX 8 7 0 1
BITMAP
7f
26
38
38
28
4c
e6
ENDCHAR
STARTCHAR L
ENCODING 76
SWIDTH 557 0
DWIDTH 7 0
BBX 7 7 0 1
BITMAP
78
20
20
20
22
66
fc
ENDCHAR
STARTCHAR M
ENCODING 77
SWIDTH 557 0
DWIDTH 7 0
BBX 9 7 0 1
BITMAP
7380
3300
3500
7f00
4a00
4200
e700
ENDCHAR
STARTCHAR N
ENCODING 78
SWIDTH 557 0
DWIDTH 7 0
BBX 8 7 0 1
BITMAP
67
32
32
32
4a
4a
e4
ENDCHAR
STARTCHAR O
ENCODING 79
SWIDTH 557 0
DWIDTH 7 0
BBX 7 7 1 1
BITMAP
3c
66
c6
c6
c4
cc
70
ENDCHAR
STARTCHAR P
ENCODING 80
SWIDTH 557 0
DWIDTH 7 0
BBX 7 7 1 1
BITMAP
7c
26
26
3c
40
40
f0
ENDCHAR
STARTCHAR Q
ENCODING 81
SWIDTH 557 0
DWIDTH 7 0
BBX 7 9 1 -1
BITMAP
3c
66
c6
c6
c4
cc
78
7c
80
ENDCHAR
STARTCHAR R
ENCODING 82
SWIDTH 557 0
DWIDTH 7 0
BBX 8 7 0 1
BITMAP
3e
33
23
3e
28
24
e7
ENDCHAR
STARTCHAR S
ENCODING 83
SWIDTH 557 0
DWIDTH 7 0
BBX 7 7 1 1
BITMAP
3c
6c
64
38
0c
cc
b8
ENDCHAR
STARTCHAR T
ENCODING 84
SWIDTH 557 0
DWIDTH 7 0
BBX 7 7 1 1
BITMAP
7e
d2
96
10
20
20
78
ENDCHAR
STARTCHAR U
ENCODING 85
SWIDTH 557 0
DWIDTH 7 0
BBX 7 7 1 1
BITMAP
fe
44
44
c4
c4
c8
70
ENDCHAR
STARTCHAR V
ENCODING 86
SWIDTH 557 0
DWIDTH 7 0
BBX 7 7 1 1
BITMAP
ee
44
48
48
50
30
20
ENDCHAR
STARTCHAR W
ENCODING 87
SWIDTH 557 0
DWIDTH 7 0
BBX 8 7 1 1
BITMAP
e7
42
de
fc
fc
cc
88
ENDCHAR
STARTCHAR X
ENCODING 88
SWIDTH 557 0
DWIDTH 7 0
BBX 8 7 0 1
BITMAP
37
16
1c
18
38
64
ee
ENDCHAR
STARTCHAR Y
ENCODING 89
SWIDTH 557 0
DWIDTH 7 0
BBX 7 7 1 1
BITMAP
ee
4c
78
30
20
20
f0
ENDCHAR
STARTCHAR Z
ENCODING 90
SWIDTH 557 0
DWIDTH 7 0
BBX 7 7 1 1
BITMAP
7e
44
48
10
24
44
fc
ENDCHAR
STARTCHAR bracketleft
ENCODING 91
SWIDTH 557 0
DWIDTH 7 0
BBX 4 9 3 0
BITMAP
30
20
40
40
40
40
40
80
c0
ENDCHAR
STARTCHAR backslash
ENCODING 92
SWIDTH 557 0
DWIDTH 7 0
BBX 3 10 3 0
BITMAP
80
80
40
40
40
40
20
20
20
20
ENDCHAR
STARTCHAR bracketright
ENCODING 93
SWIDTH 557 0
DWIDTH 7 0
BBX 4 9 1 0
BITMAP
30
10
20
20
20
20
20
40
c0
ENDCHAR
STARTCHAR asciicircum
ENCODING 94
SWIDTH 557 0
DWIDTH 7 0
BBX 6 5 1 3
BITMAP
30
78
48
48
cc
ENDCHAR
STARTCHAR underscore
ENCODING 95
SWIDTH 557 0
DWIDTH 7 0
BBX 8 1 0 -1
BITMAP
ff
ENDCHAR
STARTCHAR quoteleft
ENCODING 96
SWIDTH 557 0
DWIDTH 7 0
BBX 3 3 3 5
BITMAP
60
40
c0
ENDCHAR
STARTCHAR a
ENCODING 97
SWIDTH 557 0
DWIDTH 7 0
BBX 7 5 0 1
BITMAP
3e
3e
64
cc
76
ENDCHAR
STARTCHAR b
ENCODING 98
SWIDTH 557 0
DWIDTH 7 0
BBX 8 7 0 1
BITMAP
20
20
3e
23
23
66
fc
ENDCHAR
STARTCHAR c
ENCODING 99
SWIDTH 557 0
DWIDTH 7 0
BBX 6 5 1 1
BITMAP
34
cc
c0
c4
78
ENDCHAR
STARTCHAR d
ENCODING 100
SWIDTH 557 0
DWIDTH 7 0
BBX 7 8 1 1
BITMAP
08
14
04
3c
c4
cc
c8
7c
ENDCHAR
STARTCHAR e
ENCODING 101
SWIDTH 557 0
DWIDTH 7 0
BBX 7 5 1 1
BITMAP
3c
c6
fe
c4
7c
ENDCHAR
STARTCHAR f
ENCODING 102
SWIDTH 557 0
DWIDTH 7 0
BBX 7 7 1 1
BITMAP
1c
30
7c
20
20
20
f8
ENDCHAR
STARTCHAR g
ENCODING 103
SWIDTH 557 0
DWIDTH 7 0
BBX 8 7 0 -1
BITMAP
3f
66
c4
cc
7c
0c
78
ENDCHAR
STARTCHAR h
ENCODING 104
SWIDTH 557 0
DWIDTH 7 0
BBX 7 7 0 1
BITMAP
30
10
3e
22
24
24
ee
ENDCHAR
STARTCHAR i
ENCODING 105
SWIDTH 557 0
DWIDTH 7 0
BBX 5 9 1 1
BITMAP
18
10
00
00
70
10
20
20
f8
ENDCHAR
STARTCHAR j
ENCODING 106
SWIDTH 557 0
DWIDTH 7 0
BBX 7 11 0 -1
BITMAP
06
04
00
00
3c
08
08
08
08
90
e0
ENDCHAR
STARTCHAR k
ENCODING 107
SWIDTH 557 0
DWIDTH 7 0
BBX 7 7 0 1
BITMAP
60
20
2e
38
70
48
cc
ENDCHAR
STARTCHAR l
ENCODING 108
SWIDTH 557 0
DWIDTH 7 0
BBX 5 7 1 1
BITMAP
30
10
10
10
20
20
f8
ENDCHAR
STARTCHAR m
ENCODING 109
SWIDTH 557 0
DWIDTH 7 0
BBX 8 5 0 1
BITMAP
7f
4b
4a
52
fb
ENDCHAR
STARTCHAR n
ENCODING 110
SWIDTH 557 0
DWIDTH 7 0
BBX 7 5 0 1
BITMAP
7e
22
24
64
ee
ENDCHAR
STARTCHAR o
ENCODING 111
SWIDTH 557 0
DWIDTH 7 0
BBX 7 5 1 1
BITMAP
3c
c6
c6
cc
78
ENDCHAR
STARTCHAR p
ENCODING 112
SWIDTH 557 0
DWIDTH 7 0
BBX 8 7 0 -1
BITMAP
7e
23
23
66
7c
40
e0
ENDCHAR
STARTCHAR q
ENCODING 113
SWIDTH 557 0
DWIDTH 7 0
BBX 8 7 0 -1
BITMAP
3f
62
c2
c4
7c
04
1e
ENDCHAR
STARTCHAR r
ENCODING 114
SWIDTH 557 0
DWIDTH 7 0
BBX 7 5 1 1
BITMAP
7e
30
20
20
f8
ENDCHAR
STARTCHAR s
ENCODING 115
SWIDTH 557 0
DWIDTH 7 0
BBX 6 5 1 1
BITMAP
7c
c0
7c
8c
f8
ENDCHAR
STARTCHAR t
ENCODING 116
SWIDTH 557 0
DWIDTH 7 0
BBX 5 7 2 1
BITMAP
40
40
f0
40
80
c8
f0
ENDCHAR
STARTCHAR u
ENCODING 117
SWIDTH 557 0
DWIDTH 7 0
BBX 6 5 1 1
BITMAP
cc
44
c8
c8
7c
ENDCHAR
STARTCHAR v
ENCODING 118
SWIDTH 557 0
DWIDTH 7 0
BBX 7 5 1 1
BITMAP
ee
4c
48
30
20
ENDCHAR
STARTCHAR w
ENCODING 119
SWIDTH 557 0
DWIDTH 7 0
BBX 8 5 1 1
BITMAP
e7
5a
7c
7c
48
ENDCHAR
STARTCHAR x
ENCODING 120
SWIDTH 557 0
DWIDTH 7 0
BBX 8 5 0 1
BITMAP
77
18
1c
2c
ee
ENDCHAR
STARTCHAR y
ENCODING 121
SWIDTH 557 0
DWIDTH 7 0
BBX 7 7 1 -1
BITMAP
ee
c4
c8
d8
78
08
70
ENDCHAR
STARTCHAR z
ENCODING 122
SWIDTH 557 0
DWIDTH 7 0
BBX 6 5 1 1
BITMAP
7c
58
30
48
f8
ENDCHAR
STARTCHAR braceleft
ENCODING 123
SWIDTH 557 0
DWIDTH 7 0
BBX 4 9 3 0
BITMAP
30
60
60
60
c0
60
40
c0
e0
ENDCHAR
STARTCHAR bar
ENCODING 124
SWIDTH 557 0
DWIDTH 7 0
BBX 2 10 3 -1
BITMAP
c0
c0
c0
c0
c0
c0
c0
c0
c0
c0
ENDCHAR
STARTCHAR braceright
ENCODING 125
SWIDTH 557 0
DWIDTH 7 0
BBX 5 9 1 0
BITMAP
70
18
30
30
30
60
60
60
c0
ENDCHAR
STARTCHAR asciitilde
ENCODING 126
SWIDTH 557 0
DWIDTH 7 0
BBX 5 2 2 4
BITMAP
48
b0
ENDCHAR
STARTCHAR space
ENCODING 160
SWIDTH 557 0
DWIDTH 7 0
BBX 0 0 0 1
BITMAP
ENDCHAR
STARTCHAR Aogonek
ENCODING 161
SWIDTH 557 0
DWIDTH 7 0
BBX 7 9 0 -1
BITMAP
1c
0c
1a
32
3c
46
ee
0c
04
ENDCHAR
STARTCHAR breve
ENCODING 162
SWIDTH 557 0
DWIDTH 7 0
BBX 4 2 3 7
BITMAP
90
60
ENDCHAR
STARTCHAR Lslash
ENCODING 163
SWIDTH 557 0
DWIDTH 7 0
BBX 7 7 0 1
BITMAP
78
20
2c
70
62
66
fc
ENDCHAR
STARTCHAR currency
ENCODING 164
SWIDTH 557 0
DWIDTH 7 0
BBX 6 5 1 2
BITMAP
7c
6c
6c
6c
7c
ENDCHAR
STARTCHAR Lcaron
ENCODING 165
SWIDTH 557 0
DWIDTH 7 0
BBX 9 7 0 1
BITMAP
7900
2000
2000
2000
2200
6600
fc00
ENDCHAR
STARTCHAR Sacute
ENCODING 166
SWIDTH 557 0
DWIDTH 7 0
BBX 7 9 1 1
BITMAP
08
00
3c
6c
64
38
0c
cc
b8
ENDCHAR
STARTCHAR section
ENCODING 167
SWIDTH 557 0
DWIDTH 7 0
BBX 6 8 1 0
BITMAP
1c
3c
30
78
6c
3c
d8
f0
ENDCHAR
STARTCHAR dieresis
ENCODING 168
SWIDTH 557 0
DWIDTH 7 0
BBX 3 1 3 7
BITMAP
a0
ENDCHAR
STARTCHAR Scaron
ENCODING 169
SWIDTH 557 0
DWIDTH 7 0
BBX 7 9 1 1
BITMAP
18
00
3c
6c
64
38
0c
cc
b8
ENDCHAR
STARTCHAR Scedilla
ENCODING 170
SWIDTH 557 0
DWIDTH 7 0
BBX 7 9 1 -1
BITMAP
3c
6c
64
38
0c
cc
b8
20
60
ENDCHAR
STARTCHAR Tcaron
ENCODING 171
SWIDTH 557 0
DWIDTH 7 0
BBX 7 9 1 1
BITMAP
18
00
7e
d2
96
10
20
20
78
ENDCHAR
STARTCHAR Zacute
ENCODING 172
SWIDTH 557 0
DWIDTH 7 0
BBX 7 9 1 1
BITMAP
08
00
7e
44
48
10
24
44
fc
ENDCHAR
STARTCHAR hyphen
ENCODING 173
SWIDTH 557 0
DWIDTH 7 0
BBX 3 1 3 4
BITMAP
e0
ENDCHAR
STARTCHAR Zcaron
ENCODING 174
SWIDTH 557 0
DWIDTH 7 0
BBX 7 9 1 1
BITMAP
18
00
7e
44
48
10
24
44
fc
ENDCHAR
STARTCHAR Zdotaccent
ENCODING 175
SWIDTH 557 0
DWIDTH 7 0
BBX 7 9 1 1
BITMAP
18
00
7e
44
48
10
24
44
fc
ENDCHAR
STARTCHAR degree
ENCODING 176
SWIDTH 557 0
DWIDTH 7 0
BBX 5 3 2 5
BITMAP
f8
d8
70
ENDCHAR
STARTCHAR aogonek
ENCODING 177
SWIDTH 557 0
DWIDTH 7 0
BBX 7 7 0 -1
BITMAP
3e
7e
c4
cc
7e
1c
0c
ENDCHAR
STARTCHAR ogonek
ENCODING 178
SWIDTH 557 0
DWIDTH 7 0
BBX 3 2 2 -1
BITMAP
c0
40
ENDCHAR
STARTCHAR lslash
ENCODING 179
SWIDTH 557 0
DWIDTH 7 0
BBX 6 7 1 1
BITMAP
38
10
1c
70
50
20
f8
ENDCHAR
STARTCHAR acute
ENCODING 180
SWIDTH 557 0
DWIDTH 7 0
BBX 3 1 4 7
BITMAP
40
ENDCHAR
STARTCHAR lcaron
ENCODING 181
SWIDTH 557 0
DWIDTH 7 0
BBX 7 7 1 1
BITMAP
34
10
10
10
20
20
f8
ENDCHAR
STARTCHAR sacute
ENCODING 182
SWIDTH 557 0
DWIDTH 7 0
BBX 6 7 1 1
BITMAP
08
00
7c
c0
7c
8c
f8
ENDCHAR
STARTCHAR caron
ENCODING 183
SWIDTH 557 0
DWIDTH 7 0
BBX 3 2 4 7
BITMAP
a0
40
ENDCHAR
STARTCHAR cedilla
ENCODING 184
SWIDTH 557 0
DWIDTH 7 0
BBX 3 3 2 -1
BITMAP
40
60
e0
ENDCHAR
STARTCHAR scaron
ENCODING 185
SWIDTH 557 0
DWIDTH 7 0
BBX 6 8 1 1
BITMAP
14
08
00
7c
c0
7c
8c
f8
ENDCHAR
STARTCHAR scedilla
ENCODING 186
SWIDTH 557 0
DWIDTH 7 0
BBX 6 7 1 -1
BITMAP
7c
c0
7c
8c
f0
30
70
ENDCHAR
STARTCHAR tcaron
ENCODING 187
SWIDTH 557 0
DWIDTH 7 0
BBX 6 7 2 1
BITMAP
48
40
f0
40
80
c8
f0
ENDCHAR
STARTCHAR zacute
ENCODING 188
SWIDTH 557 0
DWIDTH 7 0
BBX 6 7 1 1
BITMAP
08
00
7c
58
30
48
f8
ENDCHAR
STARTCHAR hungarumlaut
ENCODING 189
SWIDTH 557 0
DWIDTH 7 0
BBX 5 2 3 7
BITMAP
f0
a0
ENDCHAR
STARTCHAR zcaron
ENCODING 190
SWIDTH 557 0
DWIDTH 7 0
BBX 6 8 1 1
BITMAP
14
08
00
7c
58
30
48
f8
ENDCHAR
STARTCHAR zdotaccent
ENCODING 191
SWIDTH 557 0
DWIDTH 7 0
BBX 6 8 1 1
BITMAP
18
00
00
7c
58
30
48
f8
ENDCHAR
STARTCHAR Racute
ENCODING 192
SWIDTH 557 0
DWIDTH 7 0
BBX 8 9 0 1
BITMAP
04
00
3e
33
23
3e
28
24
e7
ENDCHAR
STARTCHAR Aacute
ENCODING 193
SWIDTH 557 0
DWIDTH 7 0
BBX 7 9 0 1
BITMAP
04
00
18
18
14
34
3c
44
ee
ENDCHAR
STARTCHAR Acircumflex
ENCODING 194
SWIDTH 557 0
DWIDTH 7 0
BBX 7 9 0 1
BITMAP
1c
00
18
18
14
34
3c
44
ee
ENDCHAR
STARTCHAR Abreve
ENCODING 195
SWIDTH 557 0
DWIDTH 7 0
BBX 7 10 0 1
BITMAP
12
1c
00
18
18
14
34
3c
44
ee
ENDCHAR
STARTCHAR Adieresis
ENCODING 196
SWIDTH 557 0
DWIDTH 7 0
BBX 7 9 0 1
BITMAP
0c
00
18
18
14
34
3c
44
ee
ENDCHAR
STARTCHAR Lacute
ENCODING 197
SWIDTH 557 0
DWIDTH 7 0
BBX 7 9 0 1
BITMAP
08
00
78
20
20
20
22
66
fc
ENDCHAR
STARTCHAR Cacute
ENCODING 198
SWIDTH 557 0
DWIDTH 7 0
BBX 7 9 1 1
BITMAP
08
00
3a
66
c4
c0
c0
c4
7c
ENDCHAR
STARTCHAR Ccedilla
ENCODING 199
SWIDTH 557 0
DWIDTH 7 0
BBX 7 9 1 -1
BITMAP
3a
66
c4
c0
c0
c4
7c
38
38
ENDCHAR
STARTCHAR Ccaron
ENCODING 200
SWIDTH 557 0
DWIDTH 7 0
BBX 7 9 1 1
BITMAP
18
00
3a
66
c4
c0
c0
c4
7c
ENDCHAR
STARTCHAR Eacute
ENCODING 201
SWIDTH 557 0
DWIDTH 7 0
BBX 7 9 1 1
BITMAP
08
00
7e
22
2a
38
4c
44
fc
ENDCHAR
STARTCHAR Eogonek
ENCODING 202
SWIDTH 557 0
DWIDTH 7 0
BBX 8 9 0 -1
BITMAP
3f
11
3f
3c
2e
22
7e
18
0c
ENDCHAR
STARTCHAR Edieresis
ENCODING 203
SWIDTH 557 0
DWIDTH 7 0
BBX 7 9 1 1
BITMAP
18
00
7e
22
2a
38
4c
44
fc
ENDCHAR
STARTCHAR Ecaron
ENCODING 204
SWIDTH 557 0
DWIDTH 7 0
BBX 7 9 1 1
BITMAP
18
00
7e
22
2a
38
4c
44
fc
ENDCHAR
STARTCHAR Iacute
ENCODING 205
SWIDTH 557 0
DWIDTH 7 0
BBX 7 9 1 1
BITMAP
08
00
7e
08
10
10
10
30
fc
ENDCHAR
STARTCHAR Icircumflex
ENCODING 206
SWIDTH 557 0
DWIDTH 7 0
BBX 7 9 1 1
BITMAP
1c
00
7e
08
10
10
10
30
fc
ENDCHAR
STARTCHAR Dcaron
ENCODING 207
SWIDTH 557 0
DWIDTH 7 0
BBX 8 9 0 1
BITMAP
18
00
3e
23
23
23
22
66
f8
ENDCHAR
STARTCHAR Eth
ENCODING 208
SWIDTH 557 0
DWIDTH 7 0
BBX 8 7 0 1
BITMAP
3e
23
23
7b
22
66
f8
ENDCHAR
STARTCHAR Nacute
ENCODING 209
SWIDTH 557 0
DWIDTH 7 0
BBX 8 9 0 1
BITMAP
04
00
67
32
32
32
4a
4a
e4
ENDCHAR
STARTCHAR Ncaron
ENCODING 210
SWIDTH 557 0
DWIDTH 7 0
BBX 8 9 0 1
BITMAP
0c
00
67
32
32
32
4a
4a
e4
ENDCHAR
STARTCHAR Oacute
ENCODING 211
SWIDTH 557 0
DWIDTH 7 0
BBX 7 9 1 1
BITMAP
08
00
3c
66
c6
c6
c4
cc
70
ENDCHAR
STARTCHAR Ocircumflex
ENCODING 212
SWIDTH 557 0
DWIDTH 7 0
BBX 7 9 1 1
BITMAP
1c
00
3c
66
c6
c6
c4
cc
70
ENDCHAR
STARTCHAR Ohungarumlaut
ENCODING 213
SWIDTH 557 0
DWIDTH 7 0
BBX 7 9 1 1
BITMAP
3c
28
3c
66
c6
c6
c4
cc
70
ENDCHAR
STARTCHAR Odieresis
ENCODING 214
SWIDTH 557 0
DWIDTH 7 0
BBX 7 9 1 1
BITMAP
18
00
3c
66
c6
c6
c4
cc
70
ENDCHAR
STARTCHAR multiply
ENCODING 215
SWIDTH 557 0
DWIDTH 7 0
BBX 5 5 2 2
BITMAP
d8
78
70
d8
48
ENDCHAR
STARTCHAR Rcaron
ENCODING 216
SWIDTH 557 0
DWIDTH 7 0
BBX 8 9 0 1
BITMAP
0c
00
3e
33
23
3e
28
24
e7
ENDCHAR
STARTCHAR Uring
ENCODING 217
SWIDTH 557 0
DWIDTH 7 0
BBX 7 10 1 1
BITMAP
18
3c
00
fe
44
44
c4
c4
c8
70
ENDCHAR
STARTCHAR Uacute
ENCODING 218
SWIDTH 557 0
DWIDTH 7 0
BBX 7 9 1 1
BITMAP
08
00
fe
44
44
c4
c4
c8
70
ENDCHAR
STARTCHAR Uhungarumlaut
ENCODING 219
SWIDTH 557 0
DWIDTH 7 0
BBX 7 9 1 1
BITMAP
3c
28
fe
44
44
c4
c4
c8
70
ENDCHAR
STARTCHAR Udieresis
ENCODING 220
SWIDTH 557 0
DWIDTH 7 0
BBX 7 9 1 1
BITMAP
18
00
fe
44
44
c4
c4
c8
70
ENDCHAR
STARTCHAR Yacute
ENCODING 221
SWIDTH 557 0
DWIDTH 7 0
BBX 7 9 1 1
BITMAP
08
00
ee
4c
78
30
20
20
f0
ENDCHAR
STARTCHAR Tcedilla
ENCODING 222
SWIDTH 557 0
DWIDTH 7 0
BBX 7 9 1 -1
BITMAP
7e
d2
96
10
20
20
78
30
70
ENDCHAR
STARTCHAR germandbls
ENCODING 223
SWIDTH 557 0
DWIDTH 7 0
BBX 6 8 1 1
BITMAP
18
2c
6c
58
4c
4c
4c
b8
ENDCHAR
STARTCHAR racute
ENCODING 224
SWIDTH 557 0
DWIDTH 7 0
BBX 7 7 1 1
BITMAP
08
00
7e
30
20
20
f8
ENDCHAR
STARTCHAR aacute
ENCODING 225
SWIDTH 557 0
DWIDTH 7 0
BBX 7 7 0 1
BITMAP
04
00
3e
3e
64
cc
76
ENDCHAR
STARTCHAR acircumflex
ENCODING 226
SWIDTH 557 0
DWIDTH 7 0
BBX 7 8 0 1
BITMAP
08
14
00
3e
3e
64
cc
76
ENDCHAR
STARTCHAR abreve
ENCODING 227
SWIDTH 557 0
DWIDTH 7 0
BBX 7 8 0 1
BITMAP
12
0c
00
3e
3e
64
cc
76
ENDCHAR
STARTCHAR adieresis
ENCODING 228
SWIDTH 557 0
DWIDTH 7 0
BBX 7 7 0 1
BITMAP
14
00
3e
3e
64
cc
76
ENDCHAR
STARTCHAR lacute
ENCODING 229
SWIDTH 557 0
DWIDTH 7 0
BBX 6 10 1 1
BITMAP
08
00
00
30
10
10
10
20
20
f8
ENDCHAR
STARTCHAR cacute
ENCODING 230
SWIDTH 557 0
DWIDTH 7 0
BBX 6 7 1 1
BITMAP
08
00
34
cc
c0
c4
78
ENDCHAR
STARTCHAR ccedilla
ENCODING 231
SWIDTH 557 0
DWIDTH 7 0
BBX 6 7 1 -1
BITMAP
34
cc
c0
c4
78
30
70
ENDCHAR
STARTCHAR ccaron
ENCODING 232
SWIDTH 557 0
DWIDTH 7 0
BBX 6 8 1 1
BITMAP
14
08
00
34
cc
c0
c4
78
ENDCHAR
STARTCHAR eacute
ENCODING 233
SWIDTH 557 0
DWIDTH 7 0
BBX 7 7 1 1
BITMAP
08
00
3c
c6
fe
c4
7c
ENDCHAR
STARTCHAR eogonek
ENCODING 234
SWIDTH 557 0
DWIDTH 7 0
BBX 7 7 1 -1
BITMAP
3c
c6
fe
c2
7c
60
30
ENDCHAR
STARTCHAR edieresis
ENCODING 235
SWIDTH 557 0
DWIDTH 7 0
BBX 7 7 1 1
BITMAP
28
00
3c
c6
fe
c4
7c
ENDCHAR
STARTCHAR ecaron
ENCODING 236
SWIDTH 557 0
DWIDTH 7 0
BBX 7 8 1 1
BITMAP
14
08
00
3c
c6
fe
c4
7c
ENDCHAR
STARTCHAR iacute
ENCODING 237
SWIDTH 557 0
DWIDTH 7 0
BBX 6 7 1 1
BITMAP
08
00
70
10
20
20
f8
ENDCHAR
STARTCHAR icircumflex
ENCODING 238
SWIDTH 557 0
DWIDTH 7 0
BBX 5 8 1 1
BITMAP
10
28
00
70
10
20
20
f8
ENDCHAR
STARTCHAR dcaron
ENCODING 239
SWIDTH 557 0
DWIDTH 7 0
BBX 9 8 1 1
BITMAP
0800
1500
0400
3c00
c400
cc00
c800
7c00
ENDCHAR
STARTCHAR dbar
ENCODING 240
SWIDTH 557 0
DWIDTH 7 0
BBX 8 8 0 1
BITMAP
04
02
1f
3e
66
c6
c4
7e
ENDCHAR
STARTCHAR nacute
ENCODING 241
SWIDTH 557 0
DWIDTH 7 0
BBX 7 7 0 1
BITMAP
04
00
7e
22
24
64
ee
ENDCHAR
STARTCHAR ncaron
ENCODING 242
SWIDTH 557 0
DWIDTH 7 0
BBX 7 8 0 1
BITMAP
0a
04
00
7e
22
24
64
ee
ENDCHAR
STARTCHAR oacute
ENCODING 243
SWIDTH 557 0
DWIDTH 7 0
BBX 7 7 1 1
BITMAP
08
00
3c
c6
c6
cc
78
ENDCHAR
STARTCHAR ocircumflex
ENCODING 244
SWIDTH 557 0
DWIDTH 7 0
BBX 7 8 1 1
BITMAP
10
28
00
3c
c6
c6
cc
78
ENDCHAR
STARTCHAR ohungarumlaut
ENCODING 245
SWIDTH 557 0
DWIDTH 7 0
BBX 7 8 1 1
BITMAP
3c
28
00
3c
c6
c6
cc
78
ENDCHAR
STARTCHAR odieresis
ENCODING 246
SWIDTH 557 0
DWIDTH 7 0
BBX 7 7 1 1
BITMAP
28
00
3c
c6
c6
cc
78
ENDCHAR
STARTCHAR divide
ENCODING 247
SWIDTH 557 0
DWIDTH 7 0
BBX 6 6 1 1
BITMAP
10
10
fc
00
10
10
ENDCHAR
STARTCHAR rcaron
ENCODING 248
SWIDTH 557 0
DWIDTH 7 0
BBX 7 8 1 1
BITMAP
14
08
00
7e
30
20
20
f8
ENDCHAR
STARTCHAR uring
ENCODING 249
SWIDTH 557 0
DWIDTH 7 0
BBX 6 8 1 1
BITMAP
38
18
00
cc
44
c8
c8
7c
ENDCHAR
STARTCHAR uacute
ENCODING 250
SWIDTH 557 0
DWIDTH 7 0
BBX 6 7 1 1
BITMAP
08
00
cc
44
c8
c8
7c
ENDCHAR
STARTCHAR uhungarumlaut
ENCODING 251
SWIDTH 557 0
DWIDTH 7 0
BBX 7 8 1 1
BITMAP
3c
28
00
cc
44
c8
c8
7c
ENDCHAR
STARTCHAR udieresis
ENCODING 252
SWIDTH 557 0
DWIDTH 7 0
BBX 6 7 1 1
BITMAP
28
00
cc
44
c8
c8
7c
ENDCHAR
STARTCHAR yacute
ENCODING 253
SWIDTH 557 0
DWIDTH 7 0
BBX 7 9 1 -1
BITMAP
08
00
ee
c4
c8
d8
78
08
70
ENDCHAR
STARTCHAR tcedilla
ENCODING 254
SWIDTH 557 0
DWIDTH 7 0
BBX 5 9 2 -1
BITMAP
60
40
f0
40
80
c8
f0
70
e0
ENDCHAR
STARTCHAR dotaccent
ENCODING 255
SWIDTH 557 0
DWIDTH 7 0
BBX 2 1 4 8
BITMAP
c0
ENDCHAR
ENDFONT
